# xmcd
#
# Track frame offsets:
# 150
# 23233
# 39144
# 55828
#
# Disc length: 1051 seconds
#
# Revision: 0
# Processed by: cddbd v1.5.1PL2 Copyright (c) Steve Scherf et al.
# Submitted via: plextools 2.32a
#
DISCID=25041904
DTITLE=ベッキー - 向日葵
DYEAR=2006
DGENRE=Pop
TTITLE0=ベッキー - 向日葵
TTITLE1=ベッキー - deco boco
TTITLE2=ベッキー - チョコ
TTITLE3=ベッキー - 向日葵 (ORIGINAL KARAOKE)
EXTD=
EXTT0=
EXTT1=
EXTT2=
EXTT3=
PLAYORDER=
